<svg id="Layer_1_copy" data-name="Layer 1 copy" xmlns="http://www.w3.org/2000/svg" viewBox="0 0 31 31"><defs><style>.cls-1{fill:none;stroke:#ffffff;stroke-miterlimit:10;}.cls-2{fill:#ffffff;}</style></defs><title>Vector Smart Object21</title><circle class="cls-1" cx="15.5" cy="15.5" r="15"/><path class="cls-2" d="M16.13.81A15,15,0,0,0,6.22,27.28a4.57,4.57,0,0,1,.71-.51l4.48-2.44a1.81,1.81,0,0,0,.95-1.6V20.9a10,10,0,0,1-1.81-3.76,1.5,1.5,0,0,1-.7-1.26v-2a1.5,1.5,0,0,1,.5-1.11V9.86s-.59-4.52,5.52-4.52,5.52,4.52,5.52,4.52v2.9a1.47,1.47,0,0,1,.5,1.11v2a1.51,1.51,0,0,1-1.06,1.43,11.07,11.07,0,0,1-1.49,3c-.17.23-.32.43-.46.59v1.87a1.83,1.83,0,0,0,1,1.64l4.8,2.4a3.54,3.54,0,0,1,.78.52A15,15,0,0,0,16.13.81Zm0,0" transform="translate(-0.38 -0.31)"/></svg>