<svg id="Layer_1" data-name="Layer 1" xmlns="http://www.w3.org/2000/svg" viewBox="0 0 18 16.62"><defs><style>.cls-1{fill:#ffffff;}</style></defs><title>logout</title><path class="cls-1" d="M10,10.71a2.08,2.08,0,1,1,0-4.15h2.77V1A.69.69,0,0,0,12,.33H1A.69.69,0,0,0,.26,1V16.25a.69.69,0,0,0,.69.69H12a.69.69,0,0,0,.7-.69V10.71Z" transform="translate(-0.26 -0.33)"/><path class="cls-1" d="M17.56,9.33H10a.7.7,0,0,1,0-1.39h7.61a.7.7,0,1,1,0,1.39" transform="translate(-0.26 -0.33)"/><path class="cls-1" d="M17.56,9.33a.73.73,0,0,1-.49-.2L14.3,6.36a.69.69,0,1,1,1-1l2.77,2.77a.69.69,0,0,1-.49,1.18" transform="translate(-0.26 -0.33)"/><path class="cls-1" d="M14.79,12.1a.7.7,0,0,1-.49-.21.68.68,0,0,1,0-1l2.77-2.77a.69.69,0,1,1,1,1l-2.77,2.76a.67.67,0,0,1-.49.21" transform="translate(-0.26 -0.33)"/></svg>