<svg height="512pt" viewBox="-44 0 512 512" width="512pt" xmlns="http://www.w3.org/2000/svg"><path d="m55.175781 183.871094h-15.101562v-143.796875h47.621093v15.101562h-32.519531zm0 0"/><path d="m40.074219 231.957031h15.101562v16.027344h-15.101562zm0 0"/><path d="m357.511719 42.285156-10.679688 10.679688 61.902344 61.902344v333.941406h-216.851563v15.105468h216.851563v32.980469h-393.628906v-32.980469h152.734375v-15.105468h-152.734375v-337.070313h-15.105469v400.261719h423.839844v-403.386719zm0 0"/><path d="m15.105469 15.105469h293.867187l21.832032 21.832031 10.679687-10.683594-26.253906-26.253906h-315.230469v87.695312h15.105469zm0 0"/><path d="m247.984375 224.40625c-26.257813 0-47.625 21.363281-47.625 47.621094 0 26.261718 21.367187 47.625 47.625 47.625 26.261719 0 47.625-21.363282 47.625-47.625v-179.457032l-135.320313 54.128907v170.726562c-8.519531-7.976562-19.957031-12.878906-32.519531-12.878906-26.261719 0-47.625 21.367187-47.625 47.625 0 26.261719 21.363281 47.625 47.625 47.625s47.625-21.363281 47.625-47.625v-195.246094l105.113281-42.046875v122.402344c-8.523437-7.976562-19.957031-12.875-32.523437-12.875zm-120.214844 160.285156c-17.933593 0-32.519531-14.585937-32.519531-32.519531 0-17.929687 14.585938-32.519531 32.519531-32.519531 17.929688 0 32.519531 14.589844 32.519531 32.519531 0 17.933594-14.589843 32.519531-32.519531 32.519531zm120.214844-80.144531c-17.929687 0-32.519531-14.585937-32.519531-32.519531 0-17.929688 14.589844-32.519532 32.519531-32.519532 17.933594 0 32.523437 14.589844 32.523437 32.519532 0 17.933594-14.589843 32.519531-32.523437 32.519531zm0 0"/><path d="m40.074219 199.898438h15.101562v16.03125h-15.101562zm0 0"/><path d="m40.074219 264.015625h15.101562v16.027344h-15.101562zm0 0"/><path d="m383.769531 431.855469h-39.609375v-15.105469h24.503906v-32.519531h15.105469zm0 0"/></svg>